<svg version="1.1" id="Layer_1" xmlns="http://www.w3.org/2000/svg" xmlns:xlink="http://www.w3.org/1999/xlink" x="0px" y="0px"
	 width="100%" viewBox="0 0 864 800" enable-background="new 0 0 864 800" xml:space="preserve">
<path fill="#000000" opacity="1.000000" stroke="none" 
	d="
M603.096924,754.062134 
	C560.971313,735.733154 533.559204,704.649353 520.020020,661.315796 
	C517.901489,654.535339 516.924255,647.385437 515.614563,640.369873 
	C514.811157,636.066772 512.717346,634.305664 508.126770,634.317749 
	C460.634979,634.442810 413.142639,634.426270 365.650848,634.297668 
	C361.138153,634.285461 359.206329,636.025208 358.033447,640.279541 
	C353.793152,655.660095 350.135406,671.214722 342.674805,685.566956 
	C326.445190,716.788452 302.346222,739.401001 270.001343,753.218323 
	C256.893799,758.817688 243.183197,761.903564 229.015976,763.426208 
	C191.689407,767.438110 158.697830,756.479614 129.369995,734.056030 
	C99.189880,710.980835 81.670959,679.983032 74.956871,642.748657 
	C70.673660,618.995178 73.788216,595.831848 79.990776,572.750977 
	C94.702698,518.005310 109.062263,463.164886 123.531906,408.354279 
	C129.428741,386.017181 134.016647,363.252563 141.713089,341.490784 
	C159.661926,290.740265 195.577911,259.499207 247.938995,247.238586 
	C261.115753,244.153183 274.615112,242.594940 288.044678,244.229706 
	C311.198822,247.048172 333.232758,253.555725 353.120667,266.387695 
	C373.117493,279.289948 389.065399,295.930420 400.851410,316.559174 
	C402.943878,320.221558 405.463745,321.873291 409.974274,321.799011 
	C428.135071,321.499939 446.303802,321.604706 464.468781,321.705475 
	C468.160889,321.725922 470.410919,320.665771 472.408905,317.192200 
	C493.415405,280.672150 524.308350,257.282654 565.383667,247.196320 
	C581.491760,243.240829 597.807556,242.124435 613.937744,244.448685 
	C652.333191,249.981277 684.404541,267.386993 708.996887,297.972809 
	C725.403442,318.377838 733.376526,342.271942 739.765442,367.146118 
	C753.036682,418.815735 766.926636,470.326202 780.472595,521.925659 
	C786.295715,544.107239 792.347046,566.243652 797.488342,588.586121 
	C804.617310,619.566650 800.872009,649.669861 788.287354,678.768738 
	C779.663574,698.708862 766.904297,715.739014 750.555542,729.785828 
	C729.403748,747.959473 704.911438,759.229248 677.110291,763.518372 
	C668.135132,764.903015 659.263916,765.433411 650.351318,764.924988 
	C634.162842,764.001465 618.540466,760.171387 603.096924,754.062134 
M570.582825,301.078156 
	C550.106323,307.938538 533.981506,320.421936 522.011414,338.395050 
	C515.460266,348.231689 511.677673,359.263641 508.011658,370.319092 
	C506.784241,374.020538 504.922363,375.177490 501.184082,375.169037 
	C458.524048,375.072693 415.863495,375.049805 373.203766,375.204681 
	C368.894562,375.220337 367.034088,373.576050 365.706787,369.723663 
	C363.055084,362.027435 360.209778,354.408905 356.689453,347.015289 
	C339.595917,311.114563 296.958893,289.958405 258.264526,299.043762 
	C223.731857,307.152008 200.622894,328.711975 190.708420,362.485504 
	C179.007355,402.345032 169.115601,442.736816 158.508575,482.916077 
	C148.911942,519.267944 139.537033,555.678955 129.795441,591.991760 
	C126.289062,605.062134 125.017113,618.269714 126.967285,631.530762 
	C130.584900,656.130371 142.101929,676.589844 161.887253,691.802856 
	C187.220291,711.281555 215.502411,716.562256 245.685623,705.715698 
	C277.460815,694.297119 296.208344,670.687195 304.610901,638.400330 
	C309.090607,621.187134 313.769684,604.023376 318.000092,586.749451 
	C319.086365,582.313721 320.988464,580.936096 325.477997,580.955078 
	C366.944733,581.130005 408.412415,581.100708 449.879822,581.098816 
	C482.707245,581.097351 515.534851,581.095276 548.361877,580.968384 
	C552.429138,580.952637 554.791626,581.861023 555.625793,586.402283 
	C556.793396,592.758545 558.586975,599.022278 560.451904,605.223633 
	C565.853271,623.184448 568.245178,642.046509 576.445068,659.166016 
	C592.462036,692.605591 626.859558,715.694092 668.311035,710.262756 
	C702.127258,705.831848 726.332031,686.372498 740.226379,655.087952 
	C749.427002,634.371765 749.528748,613.110229 743.459839,591.209900 
	C732.763611,552.611572 723.044983,513.742676 712.869873,474.999481 
	C706.283508,449.920898 699.796082,424.814087 692.915283,399.815979 
	C688.425415,383.504028 685.561646,366.733185 678.778687,351.051453 
	C670.442322,331.778473 656.845581,317.411224 638.586487,307.503235 
	C617.196472,295.896362 594.636963,294.192993 570.582825,301.078156 
z"/>
<path fill="#000000" opacity="1.000000" stroke="none" 
	d="
M302.986084,77.949356 
	C330.490570,58.873859 360.508453,46.845371 392.897614,40.198303 
	C416.287933,35.398026 439.956909,34.691765 463.351074,37.426109 
	C497.691589,41.439880 530.145020,52.357754 559.741943,70.712975 
	C578.515991,82.356110 595.311035,96.450630 610.341309,112.656174 
	C612.565247,115.054008 612.345886,116.750221 609.929504,118.857819 
	C598.634338,128.709610 587.402649,138.635223 576.235046,148.631439 
	C573.270203,151.285294 571.582520,149.465424 569.636169,147.381500 
	C558.088013,135.016754 545.179016,124.271797 530.641052,115.613083 
	C506.874664,101.457939 481.347351,92.748230 453.642029,90.140930 
	C422.937927,87.251411 393.557892,92.040817 365.410950,104.173798 
	C343.173676,113.759384 323.440369,127.212814 306.679810,144.853546 
	C300.776001,151.067398 300.677460,151.028091 294.388184,145.578644 
	C284.573456,137.074478 274.802246,128.520081 265.003387,119.997543 
	C260.871582,116.403915 260.813141,115.341759 264.720520,111.234566 
	C276.341583,99.019234 288.811432,87.775932 302.986084,77.949356 
z"/>
<path fill="#000000" opacity="1.000000" stroke="none" 
	d="
M464.248108,197.775925 
	C432.910095,187.404602 405.516998,193.473877 381.930176,215.978790 
	C379.030212,218.745758 377.286041,218.608475 374.516632,216.116241 
	C363.880096,206.544312 353.142517,197.081818 342.308685,187.733749 
	C339.244385,185.089691 338.885162,183.035797 341.825165,179.984375 
	C359.468384,161.672546 380.521118,149.574615 405.200653,143.152924 
	C423.306793,138.441635 441.605438,138.077454 459.554504,141.185333 
	C487.948761,146.101807 512.549316,159.247330 532.372498,180.653030 
	C534.892761,183.374527 534.162720,185.072296 531.721985,187.201645 
	C520.687439,196.828278 509.655457,206.462341 498.833679,216.325348 
	C495.968750,218.936417 494.303711,218.407318 491.854279,215.940750 
	C484.038208,208.070023 474.998138,201.950607 464.248108,197.775925 
z"/>
<path fill="#000000" opacity="1.000000" stroke="none" 
	d="
M251.473999,408.358734 
	C276.241913,394.104736 302.373688,397.171509 320.381744,416.965546 
	C331.311646,428.979401 336.498962,443.955963 333.630035,459.810089 
	C329.932373,480.243652 318.110687,495.669861 297.576050,501.961212 
	C276.592926,508.390015 257.441101,503.702698 242.265717,487.644287 
	C229.968674,474.631683 225.656769,458.199310 229.367172,440.898193 
	C232.192337,427.724823 239.486221,416.364044 251.473999,408.358734 
z"/>
<path fill="#000000" opacity="1.000000" stroke="none" 
	d="
M599.980469,529.448608 
	C587.860718,532.296570 576.584473,528.202881 570.584167,519.010376 
	C564.253052,509.311005 564.654236,496.363586 571.571289,487.158417 
	C578.106934,478.460815 592.625916,474.997711 603.382385,479.570679 
	C614.041870,484.102386 620.883850,495.941010 619.106140,507.039673 
	C617.323914,518.166870 611.558777,526.052002 599.980469,529.448608 
z"/>
<path fill="#000000" opacity="1.000000" stroke="none" 
	d="
M560.821045,469.768890 
	C552.104248,478.679260 541.966614,480.670319 530.845520,476.682831 
	C519.691284,472.683441 514.254211,463.555664 513.988281,452.452148 
	C513.752625,442.617523 518.166077,433.870117 527.438782,428.974701 
	C537.544250,423.639709 547.723938,423.982574 557.003845,430.936798 
	C565.466003,437.278290 568.493225,446.194061 566.964661,456.503540 
	C566.255371,461.287109 564.438538,465.808594 560.821045,469.768890 
z"/>
<path fill="#000000" opacity="1.000000" stroke="none" 
	d="
M669.278931,461.977509 
	C663.346008,474.656494 651.640137,480.965179 638.948425,478.047638 
	C624.841553,474.804749 619.025574,465.073517 617.668274,452.830597 
	C616.286865,440.369781 627.401917,427.665619 640.291443,425.790558 
	C654.124756,423.778198 666.633972,431.907349 670.261719,444.975952 
	C671.852173,450.705383 671.339600,456.152313 669.278931,461.977509 
z"/>
<path fill="#000000" opacity="1.000000" stroke="none" 
	d="
M610.633179,380.317810 
	C619.925049,389.762207 621.915649,403.253296 615.760010,413.496521 
	C609.319702,424.213440 597.099426,429.123871 585.311401,425.731598 
	C569.994141,421.323700 562.264893,405.428162 567.950562,390.028259 
	C572.987122,376.386719 589.746826,369.727905 603.535095,375.996155 
	C605.933838,377.086639 608.094788,378.700409 610.633179,380.317810 
z"/>
</svg>